<svg viewBox="0 0 512 512" xmlns="http://www.w3.org/2000/svg" fill-rule="evenodd" clip-rule="evenodd" stroke-linejoin="round" stroke-miterlimit="2"><path d="M229.255 52.155L42.837 129.286c-10.362 4.288-10.256 19.019.175 23.15l187.193 74.23a69.438 69.438 0 0051.212 0l187.2-74.23c10.425-4.131 10.537-18.856.168-23.15L282.374 52.15a69.519 69.519 0 00-53.119 0" fill="#fcb400" fill-rule="nonzero"/><path d="M272.43 267.185v185.437c0 8.819 8.894 14.863 17.094 11.613l208.592-80.963a12.438 12.438 0 005.725-4.593 12.473 12.473 0 002.157-7.013V186.23c0-8.82-8.894-14.857-17.094-11.607L280.317 255.58a12.478 12.478 0 00-7.887 11.612" fill="#18bfff" fill-rule="nonzero"/><path d="M223.724 276.767l-61.906 29.887-6.281 3.037-130.68 62.613C16.574 376.297 6 370.26 6 361.06V187.017c0-3.331 1.706-6.206 3.994-8.369a14.314 14.314 0 013.168-2.368c3.12-1.875 7.575-2.375 11.363-.882l198.161 78.519c10.075 3.993 10.863 18.106 1.038 22.85" fill="#f82b60" fill-rule="nonzero"/><path d="M223.711 276.773l-61.906 29.887L9.981 178.655c.938-.938 2-1.732 3.163-2.37 3.118-1.874 7.575-2.374 11.362-.88l198.162 78.518c10.075 3.994 10.862 18.106 1.043 22.85" fill="#ba1e45" fill-rule="nonzero"/></svg>